<svg width="171" height="55" viewBox="0 0 171 55" fill="none" xmlns="http://www.w3.org/2000/svg">
<rect width="171" height="55" rx="5" fill="#FFB273"/>
<path d="M44.217 35H42.507V28.673H35.553V35H33.843V21.434H35.553V27.172H42.507V21.434H44.217V35ZM51.555 24.645C52.7963 24.645 53.7147 24.9173 54.31 25.462C54.9053 26.0067 55.203 26.8743 55.203 28.065V35H53.987L53.664 33.556H53.588C53.2967 33.9233 52.9927 34.2337 52.676 34.487C52.372 34.7277 52.0173 34.905 51.612 35.019C51.2193 35.133 50.738 35.19 50.168 35.19C49.56 35.19 49.009 35.0823 48.515 34.867C48.0337 34.6517 47.6537 34.3223 47.375 33.879C47.0963 33.423 46.957 32.853 46.957 32.169C46.957 31.1557 47.356 30.3767 48.154 29.832C48.952 29.2747 50.1807 28.9707 51.84 28.92L53.569 28.863V28.255C53.569 27.4063 53.3853 26.8173 53.018 26.488C52.6507 26.1587 52.1313 25.994 51.46 25.994C50.928 25.994 50.4213 26.0763 49.94 26.241C49.4587 26.393 49.009 26.5703 48.591 26.773L48.078 25.519C48.5213 25.2783 49.047 25.0757 49.655 24.911C50.263 24.7337 50.8963 24.645 51.555 24.645ZM52.049 30.079C50.7823 30.1297 49.902 30.3323 49.408 30.687C48.9267 31.0417 48.686 31.542 48.686 32.188C48.686 32.758 48.857 33.176 49.199 33.442C49.5537 33.708 50.0033 33.841 50.548 33.841C51.4093 33.841 52.125 33.6067 52.695 33.138C53.265 32.6567 53.55 31.922 53.55 30.934V30.022L52.049 30.079ZM68.9403 24.816V26.222H64.3993V35H62.7273V24.816H68.9403ZM78.1238 35H76.4328V26.203H73.4308C73.3042 27.8117 73.1458 29.186 72.9558 30.326C72.7658 31.4533 72.5252 32.3717 72.2338 33.081C71.9425 33.7903 71.5942 34.3097 71.1888 34.639C70.7835 34.9683 70.3085 35.133 69.7638 35.133C69.5992 35.133 69.4345 35.1203 69.2698 35.095C69.1178 35.0823 68.9912 35.0507 68.8898 35V33.746C68.9658 33.7713 69.0482 33.7903 69.1368 33.803C69.2255 33.8157 69.3142 33.822 69.4028 33.822C69.6815 33.822 69.9348 33.708 70.1628 33.48C70.3908 33.252 70.5935 32.9037 70.7708 32.435C70.9608 31.9663 71.1318 31.3773 71.2838 30.668C71.4358 29.946 71.5688 29.0973 71.6828 28.122C71.7968 27.1467 71.8982 26.0447 71.9868 24.816H78.1238V35ZM85.2132 24.645C86.4545 24.645 87.3729 24.9173 87.9682 25.462C88.5635 26.0067 88.8612 26.8743 88.8612 28.065V35H87.6452L87.3222 33.556H87.2462C86.9549 33.9233 86.6509 34.2337 86.3342 34.487C86.0302 34.7277 85.6755 34.905 85.2702 35.019C84.8775 35.133 84.3962 35.19 83.8262 35.19C83.2182 35.19 82.6672 35.0823 82.1732 34.867C81.6919 34.6517 81.3119 34.3223 81.0332 33.879C80.7545 33.423 80.6152 32.853 80.6152 32.169C80.6152 31.1557 81.0142 30.3767 81.8122 29.832C82.6102 29.2747 83.8389 28.9707 85.4982 28.92L87.2272 28.863V28.255C87.2272 27.4063 87.0435 26.8173 86.6762 26.488C86.3089 26.1587 85.7895 25.994 85.1182 25.994C84.5862 25.994 84.0795 26.0763 83.5982 26.241C83.1169 26.393 82.6672 26.5703 82.2492 26.773L81.7362 25.519C82.1795 25.2783 82.7052 25.0757 83.3132 24.911C83.9212 24.7337 84.5545 24.645 85.2132 24.645ZM85.7072 30.079C84.4405 30.1297 83.5602 30.3323 83.0662 30.687C82.5849 31.0417 82.3442 31.542 82.3442 32.188C82.3442 32.758 82.5152 33.176 82.8572 33.442C83.2119 33.708 83.6615 33.841 84.2062 33.841C85.0675 33.841 85.7832 33.6067 86.3532 33.138C86.9232 32.6567 87.2082 31.922 87.2082 30.934V30.022L85.7072 30.079ZM100.196 27.381C100.196 28.0143 100.006 28.5083 99.6256 28.863C99.2456 29.2177 98.7579 29.4583 98.1626 29.585V29.661C98.7959 29.7497 99.3469 29.9777 99.8156 30.345C100.284 30.6997 100.519 31.257 100.519 32.017C100.519 32.4477 100.436 32.8467 100.272 33.214C100.12 33.5813 99.8789 33.898 99.5496 34.164C99.2203 34.43 98.7959 34.639 98.2766 34.791C97.7573 34.9303 97.1303 35 96.3956 35H92.0066V24.816H96.3766C97.0986 24.816 97.7446 24.8983 98.3146 25.063C98.8973 25.215 99.3533 25.481 99.6826 25.861C100.025 26.2283 100.196 26.735 100.196 27.381ZM98.7896 32.017C98.7896 31.4343 98.5679 31.0163 98.1246 30.763C97.6813 30.5097 97.0289 30.383 96.1676 30.383H93.6786V33.651H96.2056C97.0416 33.651 97.6813 33.5307 98.1246 33.29C98.5679 33.0367 98.7896 32.6123 98.7896 32.017ZM98.5046 27.59C98.5046 27.1087 98.3273 26.7603 97.9726 26.545C97.6306 26.317 97.0669 26.203 96.2816 26.203H93.6786V28.996H95.9776C96.8009 28.996 97.4279 28.882 97.8586 28.654C98.2893 28.426 98.5046 28.0713 98.5046 27.59ZM104.626 24.816V29.053H110.155V24.816H111.827V35H110.155V30.459H104.626V35H102.954V24.816H104.626ZM113.456 24.816H115.242L117.446 30.611C117.572 30.953 117.686 31.2823 117.788 31.599C117.902 31.9157 118.003 32.226 118.092 32.53C118.18 32.8213 118.25 33.1063 118.301 33.385H118.377C118.453 33.0683 118.573 32.6567 118.738 32.15C118.902 31.6307 119.073 31.1113 119.251 30.592L121.322 24.816H123.127L118.738 36.406C118.497 37.0393 118.212 37.5903 117.883 38.059C117.566 38.5403 117.173 38.9077 116.705 39.161C116.249 39.427 115.691 39.56 115.033 39.56C114.729 39.56 114.463 39.541 114.235 39.503C114.007 39.4777 113.81 39.446 113.646 39.408V38.078C113.785 38.1033 113.95 38.1287 114.14 38.154C114.342 38.1793 114.551 38.192 114.767 38.192C115.159 38.192 115.495 38.116 115.774 37.964C116.065 37.8247 116.312 37.6157 116.515 37.337C116.717 37.071 116.888 36.7543 117.028 36.387L117.56 35.038L113.456 24.816ZM137.961 29.889C137.961 31.0163 137.777 31.979 137.41 32.777C137.043 33.5623 136.523 34.164 135.852 34.582C135.181 34.9873 134.383 35.19 133.458 35.19C132.597 35.19 131.843 35.0127 131.197 34.658C130.551 34.2907 130.038 33.7587 129.658 33.062C129.278 32.3527 129.056 31.485 128.993 30.459H126.409V35H124.737V24.816H126.409V29.053H129.012C129.101 28.0903 129.335 27.286 129.715 26.64C130.108 25.9813 130.621 25.481 131.254 25.139C131.9 24.797 132.647 24.626 133.496 24.626C134.37 24.626 135.143 24.835 135.814 25.253C136.485 25.6583 137.011 26.2537 137.391 27.039C137.771 27.8117 137.961 28.7617 137.961 29.889ZM130.703 29.889C130.703 30.7377 130.798 31.4533 130.988 32.036C131.191 32.6187 131.495 33.062 131.9 33.366C132.305 33.6573 132.831 33.803 133.477 33.803C134.123 33.803 134.649 33.6573 135.054 33.366C135.459 33.062 135.757 32.6187 135.947 32.036C136.137 31.4533 136.232 30.7377 136.232 29.889C136.232 29.0403 136.137 28.331 135.947 27.761C135.757 27.191 135.459 26.7603 135.054 26.469C134.649 26.1777 134.123 26.032 133.477 26.032C132.831 26.032 132.305 26.1777 131.9 26.469C131.495 26.7603 131.191 27.191 130.988 27.761C130.798 28.331 130.703 29.0403 130.703 29.889Z" fill="black"/>
</svg>
