<svg width="21" height="24" viewBox="0 0 21 24" fill="none" xmlns="http://www.w3.org/2000/svg">
<path fill-rule="evenodd" clip-rule="evenodd" d="M10.4994 1.95918C9.79092 1.95918 9.10677 2.23755 8.59875 2.74041C8.08998 3.24401 7.80023 3.93161 7.80023 4.65306V6.12245H13.1985V4.65306C13.1985 3.93161 12.9088 3.24401 12.4 2.74041C11.892 2.23755 11.2078 1.95918 10.4994 1.95918ZM15.2226 6.12245V4.65306C15.2226 3.42598 14.7304 2.24486 13.8472 1.37064C12.9632 0.495683 11.7595 0 10.4994 0C9.23929 0 8.03552 0.495683 7.15158 1.37064C6.26838 2.24486 5.77613 3.42598 5.77613 4.65306V6.12245H3.48658M5.77613 8.08163H3.48646C3.27918 8.08161 3.07349 8.12591 2.88351 8.21233C2.69344 8.29879 2.52265 8.42575 2.38381 8.58591C2.2449 8.74615 2.14146 8.93564 2.08194 9.14185C2.02243 9.34805 2.00857 9.565 2.04155 9.77744C2.04154 9.77739 2.04156 9.77749 2.04155 9.77744L3.59407 19.7595C3.69375 20.401 4.02155 20.9818 4.51223 21.3985C5.00235 21.8148 5.62293 22.0408 6.26119 22.0408C6.26118 22.0408 6.26121 22.0408 6.26119 22.0408H14.7376C15.376 22.041 15.9971 21.8151 16.4874 21.3988C16.9783 20.9821 17.3062 20.4013 17.4059 19.7596L18.9584 9.77759C18.9914 9.5651 18.9776 9.3481 18.918 9.14185C18.8585 8.93564 18.7551 8.74614 18.6162 8.58591C18.4773 8.42575 18.3065 8.29879 18.1165 8.21233C17.9265 8.12591 17.7209 8.08161 17.5137 8.08163H15.2226V10.7755C15.2226 11.3165 14.7695 11.7551 14.2106 11.7551C13.6516 11.7551 13.1985 11.3165 13.1985 10.7755V8.08163H7.80023V10.7755C7.80023 11.3165 7.34712 11.7551 6.78818 11.7551C6.22924 11.7551 5.77613 11.3165 5.77613 10.7755V8.08163ZM15.2226 6.12245H17.5134C17.5134 6.12245 17.5134 6.12245 17.5134 6.12245C18.0195 6.12241 18.5191 6.23073 18.9774 6.43918C19.4356 6.64761 19.841 6.95081 20.1667 7.32659C20.4924 7.7023 20.731 8.14186 20.8675 8.61469C21.004 9.08748 21.0354 9.58343 20.96 10.0689L19.4075 20.051C19.4075 20.051 19.4075 20.0509 19.4075 20.051C19.2376 21.1442 18.6773 22.1456 17.8221 22.8717C16.9664 23.5982 15.8724 24.0003 14.7376 24C14.7375 24 14.7377 24 14.7376 24H6.26119C5.1265 23.9999 4.03269 23.5977 3.17726 22.8712C2.32242 22.1452 1.76237 21.1441 1.59252 20.0511C1.59252 20.0511 1.59253 20.0512 1.59252 20.0511L0.0400083 10.0691C-0.0354235 9.58358 -0.00396929 9.08748 0.132493 8.61469C0.268966 8.14186 0.507546 7.7023 0.833244 7.32659C1.159 6.95081 1.56441 6.64761 2.02263 6.43918C2.48088 6.23074 2.98044 6.12241 3.48658 6.12245" fill="black"/>
</svg>
