<svg width="24" height="22" viewBox="0 0 24 22" fill="none" xmlns="http://www.w3.org/2000/svg">
<path fill-rule="evenodd" clip-rule="evenodd" d="M12 0C12.3914 0 12.7491 0.214433 12.9238 0.553743L16.0716 6.6691L23.1143 7.64768C23.5046 7.70192 23.829 7.96688 23.9501 8.33045C24.0712 8.69403 23.9679 9.09267 23.6839 9.35773L18.5868 14.1146L19.7882 20.8292C19.8552 21.204 19.697 21.5832 19.3799 21.8075C19.0629 22.0319 18.6419 22.0625 18.2937 21.8867L12.0071 18.7105L5.7054 21.8871C5.35726 22.0626 4.93649 22.0316 4.61968 21.8072C4.30287 21.5829 4.14481 21.2038 4.21183 20.8292L5.4132 14.1146L0.316116 9.35773C0.032111 9.09267 -0.0711938 8.69403 0.049911 8.33045C0.171016 7.96688 0.495366 7.70192 0.885727 7.64768L7.92836 6.6691L11.0762 0.553743C11.2509 0.214433 11.6086 0 12 0ZM12 3.24086L9.53439 8.03079C9.38315 8.3246 9.09266 8.52778 8.75718 8.5744L3.26951 9.33692L7.24 13.0424C7.48669 13.2726 7.59942 13.6064 7.54092 13.9334L6.60211 19.1805L11.5312 16.6959C11.8302 16.5452 12.1862 16.5453 12.485 16.6963L17.3975 19.1782L16.4591 13.9334C16.4006 13.6064 16.5133 13.2726 16.76 13.0424L20.7305 9.33692L15.2428 8.5744C14.9073 8.52778 14.6169 8.3246 14.4656 8.03079L12 3.24086Z" fill="black"/>
</svg>
