<svg width="210" height="65" viewBox="0 0 210 65" fill="none" xmlns="http://www.w3.org/2000/svg">
<path d="M2.843 38V24.434H13.027V38H11.336V25.935H4.553V38H2.843ZM21.3575 27.626C22.6115 27.626 23.6185 28.063 24.3785 28.937C25.1511 29.811 25.5375 31.1283 25.5375 32.889C25.5375 34.0417 25.3601 35.017 25.0055 35.815C24.6635 36.6003 24.1758 37.1957 23.5425 37.601C22.9218 37.9937 22.1871 38.19 21.3385 38.19C20.8191 38.19 20.3568 38.1203 19.9515 37.981C19.5461 37.8417 19.1978 37.6643 18.9065 37.449C18.6278 37.221 18.3871 36.974 18.1845 36.708H18.0705C18.0958 36.9233 18.1211 37.1957 18.1465 37.525C18.1718 37.8543 18.1845 38.1393 18.1845 38.38V42.56H16.5125V27.816H17.8805L18.1085 29.203H18.1845C18.3871 28.9117 18.6278 28.6457 18.9065 28.405C19.1978 28.1643 19.5398 27.9743 19.9325 27.835C20.3378 27.6957 20.8128 27.626 21.3575 27.626ZM21.0535 29.032C20.3695 29.032 19.8185 29.165 19.4005 29.431C18.9825 29.6843 18.6785 30.0707 18.4885 30.59C18.2985 31.1093 18.1971 31.768 18.1845 32.566V32.889C18.1845 33.725 18.2731 34.4343 18.4505 35.017C18.6278 35.5997 18.9255 36.043 19.3435 36.347C19.7741 36.651 20.3568 36.803 21.0915 36.803C21.7121 36.803 22.2188 36.632 22.6115 36.29C23.0168 35.948 23.3145 35.4857 23.5045 34.903C23.7071 34.3077 23.8085 33.63 23.8085 32.87C23.8085 31.7047 23.5805 30.7737 23.1245 30.077C22.6811 29.3803 21.9908 29.032 21.0535 29.032ZM37.0559 32.889C37.0559 33.7377 36.9419 34.4913 36.7139 35.15C36.4986 35.796 36.1819 36.347 35.7639 36.803C35.3586 37.259 34.8582 37.6073 34.2629 37.848C33.6802 38.076 33.0279 38.19 32.3059 38.19C31.6346 38.19 31.0139 38.076 30.4439 37.848C29.8739 37.6073 29.3799 37.259 28.9619 36.803C28.5439 36.347 28.2146 35.796 27.9739 35.15C27.7459 34.4913 27.6319 33.7377 27.6319 32.889C27.6319 31.7617 27.8219 30.8117 28.2019 30.039C28.5819 29.2537 29.1266 28.6583 29.8359 28.253C30.5452 27.835 31.3876 27.626 32.3629 27.626C33.2876 27.626 34.0982 27.835 34.7949 28.253C35.5042 28.6583 36.0552 29.2537 36.4479 30.039C36.8532 30.8117 37.0559 31.7617 37.0559 32.889ZM29.3609 32.889C29.3609 33.687 29.4622 34.3837 29.6649 34.979C29.8802 35.5617 30.2096 36.0113 30.6529 36.328C31.0962 36.6447 31.6599 36.803 32.3439 36.803C33.0279 36.803 33.5916 36.6447 34.0349 36.328C34.4782 36.0113 34.8012 35.5617 35.0039 34.979C35.2192 34.3837 35.3269 33.687 35.3269 32.889C35.3269 32.0783 35.2192 31.388 35.0039 30.818C34.7886 30.248 34.4592 29.811 34.0159 29.507C33.5852 29.1903 33.0216 29.032 32.3249 29.032C31.2862 29.032 30.5326 29.374 30.0639 30.058C29.5952 30.742 29.3609 31.6857 29.3609 32.889ZM43.7908 38.19C42.8915 38.19 42.0872 38.0063 41.3778 37.639C40.6812 37.2717 40.1302 36.7017 39.7248 35.929C39.3322 35.1563 39.1358 34.1683 39.1358 32.965C39.1358 31.711 39.3448 30.6913 39.7628 29.906C40.1808 29.1207 40.7445 28.5443 41.4538 28.177C42.1758 27.8097 42.9928 27.626 43.9048 27.626C44.4242 27.626 44.9245 27.683 45.4058 27.797C45.8872 27.8983 46.2798 28.025 46.5838 28.177L46.0708 29.564C45.7668 29.45 45.4122 29.3423 45.0068 29.241C44.6015 29.1397 44.2215 29.089 43.8668 29.089C43.1828 29.089 42.6192 29.2347 42.1758 29.526C41.7325 29.8173 41.4032 30.248 41.1878 30.818C40.9725 31.388 40.8648 32.0973 40.8648 32.946C40.8648 33.7567 40.9725 34.447 41.1878 35.017C41.4032 35.587 41.7262 36.0177 42.1568 36.309C42.5875 36.6003 43.1258 36.746 43.7718 36.746C44.3292 36.746 44.8168 36.689 45.2348 36.575C45.6655 36.461 46.0582 36.3217 46.4128 36.157V37.639C46.0708 37.8163 45.6908 37.9493 45.2728 38.038C44.8675 38.1393 44.3735 38.19 43.7908 38.19ZM59.7597 27.816V38H58.2587V31.502C58.2587 31.236 58.2651 30.9573 58.2777 30.666C58.3031 30.3747 58.3284 30.0897 58.3537 29.811H58.2967L54.9717 38H53.5657L50.3357 29.811H50.2787C50.3041 30.0897 50.3167 30.3747 50.3167 30.666C50.3294 30.9573 50.3357 31.255 50.3357 31.559V38H48.8347V27.816H51.0577L54.2687 36.005L57.5367 27.816H59.7597ZM71.8645 32.889C71.8645 33.7377 71.7505 34.4913 71.5225 35.15C71.3072 35.796 70.9905 36.347 70.5725 36.803C70.1672 37.259 69.6668 37.6073 69.0715 37.848C68.4888 38.076 67.8365 38.19 67.1145 38.19C66.4432 38.19 65.8225 38.076 65.2525 37.848C64.6825 37.6073 64.1885 37.259 63.7705 36.803C63.3525 36.347 63.0232 35.796 62.7825 35.15C62.5545 34.4913 62.4405 33.7377 62.4405 32.889C62.4405 31.7617 62.6305 30.8117 63.0105 30.039C63.3905 29.2537 63.9352 28.6583 64.6445 28.253C65.3538 27.835 66.1962 27.626 67.1715 27.626C68.0962 27.626 68.9068 27.835 69.6035 28.253C70.3128 28.6583 70.8638 29.2537 71.2565 30.039C71.6618 30.8117 71.8645 31.7617 71.8645 32.889ZM64.1695 32.889C64.1695 33.687 64.2708 34.3837 64.4735 34.979C64.6888 35.5617 65.0182 36.0113 65.4615 36.328C65.9048 36.6447 66.4685 36.803 67.1525 36.803C67.8365 36.803 68.4002 36.6447 68.8435 36.328C69.2868 36.0113 69.6098 35.5617 69.8125 34.979C70.0278 34.3837 70.1355 33.687 70.1355 32.889C70.1355 32.0783 70.0278 31.388 69.8125 30.818C69.5972 30.248 69.2678 29.811 68.8245 29.507C68.3938 29.1903 67.8302 29.032 67.1335 29.032C66.0948 29.032 65.3412 29.374 64.8725 30.058C64.4038 30.742 64.1695 31.6857 64.1695 32.889ZM81.3589 29.222H78.0339V38H76.3809V29.222H73.0939V27.816H81.3589V29.222ZM88.21 27.626C89.464 27.626 90.471 28.063 91.231 28.937C92.0037 29.811 92.39 31.1283 92.39 32.889C92.39 34.0417 92.2127 35.017 91.858 35.815C91.516 36.6003 91.0283 37.1957 90.395 37.601C89.7743 37.9937 89.0397 38.19 88.191 38.19C87.6717 38.19 87.2093 38.1203 86.804 37.981C86.3987 37.8417 86.0503 37.6643 85.759 37.449C85.4803 37.221 85.2397 36.974 85.037 36.708H84.923C84.9483 36.9233 84.9737 37.1957 84.999 37.525C85.0243 37.8543 85.037 38.1393 85.037 38.38V42.56H83.365V27.816H84.733L84.961 29.203H85.037C85.2397 28.9117 85.4803 28.6457 85.759 28.405C86.0503 28.1643 86.3923 27.9743 86.785 27.835C87.1903 27.6957 87.6653 27.626 88.21 27.626ZM87.906 29.032C87.222 29.032 86.671 29.165 86.253 29.431C85.835 29.6843 85.531 30.0707 85.341 30.59C85.151 31.1093 85.0497 31.768 85.037 32.566V32.889C85.037 33.725 85.1257 34.4343 85.303 35.017C85.4803 35.5997 85.778 36.043 86.196 36.347C86.6267 36.651 87.2093 36.803 87.944 36.803C88.5647 36.803 89.0713 36.632 89.464 36.29C89.8693 35.948 90.167 35.4857 90.357 34.903C90.5597 34.3077 90.661 33.63 90.661 32.87C90.661 31.7047 90.433 30.7737 89.977 30.077C89.5337 29.3803 88.8433 29.032 87.906 29.032ZM98.9875 27.626C99.8615 27.626 100.609 27.816 101.229 28.196C101.863 28.576 102.344 29.1143 102.673 29.811C103.015 30.495 103.186 31.2993 103.186 32.224V33.231H96.2135C96.2388 34.3837 96.5301 35.264 97.0875 35.872C97.6575 36.4673 98.4491 36.765 99.4625 36.765C100.108 36.765 100.678 36.708 101.172 36.594C101.679 36.4673 102.198 36.29 102.73 36.062V37.525C102.211 37.753 101.698 37.9177 101.191 38.019C100.685 38.133 100.083 38.19 99.3865 38.19C98.4238 38.19 97.5688 37.9937 96.8215 37.601C96.0868 37.2083 95.5105 36.6257 95.0925 35.853C94.6871 35.0677 94.4845 34.1113 94.4845 32.984C94.4845 31.8693 94.6681 30.913 95.0355 30.115C95.4155 29.317 95.9411 28.7027 96.6125 28.272C97.2965 27.8413 98.0881 27.626 98.9875 27.626ZM98.9685 28.994C98.1705 28.994 97.5371 29.2537 97.0685 29.773C96.6125 30.2797 96.3401 30.989 96.2515 31.901H101.438C101.438 31.3183 101.35 30.8117 101.172 30.381C100.995 29.9503 100.723 29.6147 100.355 29.374C100.001 29.1207 99.5385 28.994 98.9685 28.994ZM112.809 29.222H109.484V38H107.831V29.222H104.544V27.816H112.809V29.222ZM119.508 31.996C120.395 31.996 121.13 32.1037 121.712 32.319C122.295 32.5343 122.732 32.8573 123.023 33.288C123.327 33.706 123.479 34.238 123.479 34.884C123.479 35.5173 123.334 36.0683 123.042 36.537C122.764 37.0057 122.327 37.3667 121.731 37.62C121.136 37.8733 120.37 38 119.432 38H114.815V27.816H116.487V31.996H119.508ZM121.807 34.979C121.807 34.3583 121.586 33.9403 121.142 33.725C120.712 33.497 120.104 33.383 119.318 33.383H116.487V36.651H119.356C120.066 36.651 120.648 36.5243 121.104 36.271C121.573 36.0177 121.807 35.587 121.807 34.979ZM138.664 30.381C138.664 31.0143 138.474 31.5083 138.094 31.863C137.714 32.2177 137.227 32.4583 136.631 32.585V32.661C137.265 32.7497 137.816 32.9777 138.284 33.345C138.753 33.6997 138.987 34.257 138.987 35.017C138.987 35.4477 138.905 35.8467 138.74 36.214C138.588 36.5813 138.348 36.898 138.018 37.164C137.689 37.43 137.265 37.639 136.745 37.791C136.226 37.9303 135.599 38 134.864 38H130.475V27.816H134.845C135.567 27.816 136.213 27.8983 136.783 28.063C137.366 28.215 137.822 28.481 138.151 28.861C138.493 29.2283 138.664 29.735 138.664 30.381ZM137.258 35.017C137.258 34.4343 137.037 34.0163 136.593 33.763C136.15 33.5097 135.498 33.383 134.636 33.383H132.147V36.651H134.674C135.51 36.651 136.15 36.5307 136.593 36.29C137.037 36.0367 137.258 35.6123 137.258 35.017ZM136.973 30.59C136.973 30.1087 136.796 29.7603 136.441 29.545C136.099 29.317 135.536 29.203 134.75 29.203H132.147V31.996H134.446C135.27 31.996 135.897 31.882 136.327 31.654C136.758 31.426 136.973 31.0713 136.973 30.59ZM145.508 38.19C144.608 38.19 143.804 38.0063 143.095 37.639C142.398 37.2717 141.847 36.7017 141.442 35.929C141.049 35.1563 140.853 34.1683 140.853 32.965C140.853 31.711 141.062 30.6913 141.48 29.906C141.898 29.1207 142.461 28.5443 143.171 28.177C143.893 27.8097 144.71 27.626 145.622 27.626C146.141 27.626 146.641 27.683 147.123 27.797C147.604 27.8983 147.997 28.025 148.301 28.177L147.788 29.564C147.484 29.45 147.129 29.3423 146.724 29.241C146.318 29.1397 145.938 29.089 145.584 29.089C144.9 29.089 144.336 29.2347 143.893 29.526C143.449 29.8173 143.12 30.248 142.905 30.818C142.689 31.388 142.582 32.0973 142.582 32.946C142.582 33.7567 142.689 34.447 142.905 35.017C143.12 35.587 143.443 36.0177 143.874 36.309C144.304 36.6003 144.843 36.746 145.489 36.746C146.046 36.746 146.534 36.689 146.952 36.575C147.382 36.461 147.775 36.3217 148.13 36.157V37.639C147.788 37.8163 147.408 37.9493 146.99 38.038C146.584 38.1393 146.09 38.19 145.508 38.19ZM154.485 27.626C155.359 27.626 156.106 27.816 156.727 28.196C157.36 28.576 157.841 29.1143 158.171 29.811C158.513 30.495 158.684 31.2993 158.684 32.224V33.231H151.711C151.736 34.3837 152.027 35.264 152.585 35.872C153.155 36.4673 153.946 36.765 154.96 36.765C155.606 36.765 156.176 36.708 156.67 36.594C157.176 36.4673 157.696 36.29 158.228 36.062V37.525C157.708 37.753 157.195 37.9177 156.689 38.019C156.182 38.133 155.58 38.19 154.884 38.19C153.921 38.19 153.066 37.9937 152.319 37.601C151.584 37.2083 151.008 36.6257 150.59 35.853C150.184 35.0677 149.982 34.1113 149.982 32.984C149.982 31.8693 150.165 30.913 150.533 30.115C150.913 29.317 151.438 28.7027 152.11 28.272C152.794 27.8413 153.585 27.626 154.485 27.626ZM154.466 28.994C153.668 28.994 153.034 29.2537 152.566 29.773C152.11 30.2797 151.837 30.989 151.749 31.901H156.936C156.936 31.3183 156.847 30.8117 156.67 30.381C156.492 29.9503 156.22 29.6147 155.853 29.374C155.498 29.1207 155.036 28.994 154.466 28.994ZM151.673 25.061C151.673 24.7317 151.761 24.4973 151.939 24.358C152.116 24.206 152.325 24.13 152.566 24.13C152.806 24.13 153.015 24.206 153.193 24.358C153.37 24.4973 153.459 24.7317 153.459 25.061C153.459 25.3777 153.37 25.6183 153.193 25.783C153.015 25.935 152.806 26.011 152.566 26.011C152.325 26.011 152.116 25.935 151.939 25.783C151.761 25.6183 151.673 25.3777 151.673 25.061ZM155.245 25.061C155.245 24.7317 155.327 24.4973 155.492 24.358C155.669 24.206 155.878 24.13 156.119 24.13C156.359 24.13 156.568 24.206 156.746 24.358C156.923 24.4973 157.012 24.7317 157.012 25.061C157.012 25.3777 156.923 25.6183 156.746 25.783C156.568 25.935 156.359 26.011 156.119 26.011C155.878 26.011 155.669 25.935 155.492 25.783C155.327 25.6183 155.245 25.3777 155.245 25.061Z" fill="black"/>
<path fill-rule="evenodd" clip-rule="evenodd" d="M177.15 35.6114C177.527 35.9902 178.139 35.9902 178.516 35.6114L184.31 29.7905C184.687 29.4116 184.687 28.7973 184.31 28.4185C183.933 28.0396 183.321 28.0396 182.944 28.4185L177.833 33.5534L172.722 28.4185C172.345 28.0396 171.733 28.0396 171.356 28.4185C170.979 28.7973 170.979 29.4116 171.356 29.7905L177.15 35.6114Z" fill="#121214"/>
<line y1="48.7502" x2="192.107" y2="48.7502" stroke="#FFB273"/>
</svg>
