<svg width="16" height="22" viewBox="0 0 16 22" fill="none" xmlns="http://www.w3.org/2000/svg">
<path fill-rule="evenodd" clip-rule="evenodd" d="M4.00045 1.58385C5.06638 0.566368 6.50562 0 8 0C9.49438 0 10.9336 0.566368 11.9995 1.58385C13.0665 2.60234 13.672 3.99039 13.672 5.44445C13.672 6.8985 13.0665 8.28655 11.9995 9.30504C10.9336 10.3225 9.49438 10.8889 8 10.8889C6.50562 10.8889 5.06638 10.3225 4.00045 9.30504C2.93346 8.28655 2.32804 6.8985 2.32804 5.44445C2.32804 3.99039 2.93346 2.60234 4.00045 1.58385ZM8 2C7.02464 2 6.09529 2.37014 5.41485 3.01965C4.73547 3.66815 4.35979 4.54102 4.35979 5.44445C4.35979 6.34787 4.73547 7.22075 5.41485 7.86924C6.09529 8.51875 7.02464 8.88889 8 8.88889C8.97536 8.88889 9.90471 8.51875 10.5852 7.86924C11.2645 7.22075 11.6402 6.34787 11.6402 5.44445C11.6402 4.54102 11.2645 3.66815 10.5852 3.01965C9.90471 2.37014 8.97536 2 8 2ZM5.67196 15.3333C4.6966 15.3333 3.76724 15.7035 3.0868 16.353C2.40743 17.0015 2.03175 17.8744 2.03175 18.7778V21C2.03175 21.5523 1.57692 22 1.01587 22C0.454822 22 0 21.5523 0 21V18.7778C0 17.3237 0.60542 15.9357 1.67241 14.9172C2.73834 13.8997 4.17757 13.3333 5.67196 13.3333H10.328C11.8224 13.3333 13.2617 13.8997 14.3276 14.9172C15.3946 15.9357 16 17.3237 16 18.7778V21C16 21.5523 15.5452 22 14.9841 22C14.4231 22 13.9683 21.5523 13.9683 21V18.7778C13.9683 17.8744 13.5926 17.0015 12.9132 16.353C12.2328 15.7035 11.3034 15.3333 10.328 15.3333H5.67196Z" fill="black"/>
</svg>
