<svg width="22" height="22" viewBox="0 0 22 22" fill="none" xmlns="http://www.w3.org/2000/svg">
<path fill-rule="evenodd" clip-rule="evenodd" d="M6.37894 0.786578C7.63264 0.267279 8.97634 0 10.3333 0C11.6903 0 13.034 0.267279 14.2877 0.786578C15.5414 1.30588 16.6806 2.06702 17.6401 3.02656C18.5996 3.9861 19.3608 5.12524 19.8801 6.37894C20.3994 7.63264 20.6667 8.97634 20.6667 10.3333C20.6667 11.6903 20.3994 13.034 19.8801 14.2877C19.4888 15.2324 18.9602 16.112 18.3129 16.8987L21.7071 20.2929C22.0976 20.6834 22.0976 21.3166 21.7071 21.7071C21.3166 22.0976 20.6834 22.0976 20.2929 21.7071L16.8987 18.3129C16.112 18.9602 15.2324 19.4888 14.2877 19.8801C13.034 20.3994 11.6903 20.6667 10.3333 20.6667C8.97634 20.6667 7.63264 20.3994 6.37894 19.8801C5.12524 19.3608 3.9861 18.5996 3.02656 17.6401C2.06702 16.6806 1.30588 15.5414 0.786578 14.2877C0.26728 13.034 0 11.6903 0 10.3333C0 8.97634 0.26728 7.63264 0.786578 6.37894C1.30588 5.12524 2.06702 3.9861 3.02656 3.02656C3.9861 2.06702 5.12524 1.30588 6.37894 0.786578ZM10.3333 2C9.23898 2 8.15535 2.21555 7.14431 2.63434C6.13326 3.05313 5.2146 3.66696 4.44078 4.44078C3.66696 5.2146 3.05313 6.13326 2.63434 7.14431C2.21555 8.15535 2 9.23898 2 10.3333C2 11.4277 2.21555 12.5113 2.63434 13.5224C3.05313 14.5334 3.66696 15.4521 4.44078 16.2259C5.2146 16.9997 6.13326 17.6135 7.14431 18.0323C8.15535 18.4511 9.23898 18.6667 10.3333 18.6667C11.4277 18.6667 12.5113 18.4511 13.5224 18.0323C14.5334 17.6135 15.4521 16.9997 16.2259 16.2259C16.9997 15.4521 17.6135 14.5334 18.0323 13.5224C18.4511 12.5113 18.6667 11.4277 18.6667 10.3333C18.6667 9.23898 18.4511 8.15535 18.0323 7.14431C17.6135 6.13326 16.9997 5.2146 16.2259 4.44078C15.4521 3.66696 14.5334 3.05313 13.5224 2.63434C12.5113 2.21555 11.4277 2 10.3333 2Z" fill="black"/>
</svg>
