<svg width="47" height="45" viewBox="0 0 47 45" fill="none" xmlns="http://www.w3.org/2000/svg">
<rect width="46.7672" height="44.6058" fill="white"/>
<path d="M0 44.6058L3.28734 33.1514C1.25882 29.7985 0.192914 25.9977 0.194863 22.1003C0.200709 9.91549 10.5967 0 23.3699 0C29.5685 0.00185857 35.3871 2.30463 39.7638 6.48271C44.1384 10.6608 46.5469 16.2142 46.545 22.1207C46.5392 34.3074 36.1432 44.2229 23.3699 44.2229C19.4922 44.2211 15.6709 43.2936 12.2861 41.5317L0 44.6058ZM12.8551 37.5302C16.121 39.3795 19.2388 40.4872 23.3621 40.489C33.9783 40.489 42.6263 32.2481 42.6321 22.117C42.636 11.9655 34.0289 3.73573 23.3777 3.73202C12.7538 3.73202 4.11161 11.9729 4.10771 22.1022C4.10577 26.2375 5.37627 29.3339 7.51002 32.5734L5.56334 39.3534L12.8551 37.5302ZM35.0442 27.3749C34.9 27.1445 34.5142 27.0069 33.9335 26.73C33.3547 26.4531 30.5078 25.1168 29.9758 24.9328C29.4458 24.7488 29.0599 24.6558 28.6722 25.2097C28.2863 25.7617 27.1756 27.0069 26.8385 27.3749C26.5014 27.7429 26.1623 27.7894 25.5836 27.5125C25.0048 27.2355 23.138 26.6538 20.9263 24.7711C19.2057 23.3065 18.0424 21.4981 17.7053 20.9443C17.3681 20.3923 17.6702 20.093 17.9586 19.818C18.2197 19.5708 18.5373 19.1731 18.8277 18.8497C19.1219 18.53 19.2174 18.2995 19.4123 17.9297C19.6052 17.5617 19.5097 17.2383 19.3635 16.9613C19.2174 16.6863 18.0599 13.9672 17.5786 12.8613C17.107 11.7852 16.6296 11.9302 16.275 11.9135L15.1642 11.8949C14.7784 11.8949 14.151 12.0324 13.6209 12.5863C13.0909 13.1401 11.5944 14.4746 11.5944 17.1937C11.5944 19.9128 13.6696 22.5389 13.958 22.9069C14.2484 23.2749 18.0404 28.8544 23.8493 31.2463C25.2309 31.8151 26.3104 32.1552 27.1503 32.4098C28.5377 32.8299 29.8004 32.7704 30.7981 32.6291C31.9108 32.4711 34.2238 31.2928 34.7071 30.003C35.1903 28.7113 35.1903 27.6054 35.0442 27.3749Z" fill="black"/>
</svg>
