<svg width="47" height="45" viewBox="0 0 47 45" fill="none" xmlns="http://www.w3.org/2000/svg">
<g clip-path="url(#clip0_10_877)">
<path fill-rule="evenodd" clip-rule="evenodd" d="M46.7672 22.3029C46.7672 34.6204 36.298 44.6058 23.3836 44.6058C10.4692 44.6058 0 34.6204 0 22.3029C0 9.98534 10.4692 0 23.3836 0C36.298 0 46.7672 9.98534 46.7672 22.3029ZM24.2216 16.465C21.9472 17.3673 17.4016 19.2347 10.5848 22.0674C9.47783 22.4873 8.89797 22.898 8.84518 23.2996C8.75597 23.9784 9.64713 24.2457 10.8607 24.6096C11.0257 24.6591 11.1968 24.7104 11.3721 24.7648C12.566 25.1349 14.1721 25.568 15.007 25.5852C15.7643 25.6008 16.6096 25.303 17.5429 24.6918C23.912 20.5911 27.1998 18.5185 27.4062 18.4738C27.5518 18.4423 27.7536 18.4026 27.8904 18.5185C28.0271 18.6345 28.0136 18.854 27.9992 18.9129C27.9109 19.2718 24.4127 22.3737 22.6025 23.9789C22.0381 24.4793 21.6378 24.8343 21.556 24.9154C21.3726 25.097 21.1858 25.2687 21.0063 25.4338C19.8971 26.4537 19.0653 27.2185 21.0523 28.4674C22.0072 29.0676 22.7713 29.5639 23.5336 30.059C24.3661 30.5997 25.1964 31.139 26.2707 31.8107C26.5445 31.9819 26.8059 32.1596 27.0605 32.3327C28.0293 32.9915 28.8997 33.5833 29.975 33.489C30.5999 33.4341 31.2453 32.8737 31.5731 31.2024C32.3478 27.2525 33.8704 18.6944 34.2224 15.1678C34.2532 14.8588 34.2144 14.4634 34.1833 14.2898C34.1521 14.1162 34.087 13.8689 33.8505 13.6858C33.5703 13.469 33.1378 13.4232 32.9443 13.4265C32.0648 13.4413 30.7155 13.8888 24.2216 16.465Z" fill="black"/>
</g>
<defs>
<clipPath id="clip0_10_877">
<rect width="46.7672" height="44.6058" fill="white"/>
</clipPath>
</defs>
</svg>
