<svg width="47" height="45" viewBox="0 0 47 45" fill="none" xmlns="http://www.w3.org/2000/svg">
<g clip-path="url(#clip0_10_878)">
<rect width="46.7672" height="44.6058" fill="white"/>
<path fill-rule="evenodd" clip-rule="evenodd" d="M3.28747 3.13554C0 6.27107 0 11.3176 0 21.4108V23.195C0 33.2882 0 38.3347 3.28747 41.4703C6.57495 44.6058 11.866 44.6058 22.4483 44.6058H24.319C34.9012 44.6058 40.1923 44.6058 43.4798 41.4703C46.7672 38.3347 46.7672 33.2882 46.7672 23.195V21.4108C46.7672 11.3176 46.7672 6.27107 43.4798 3.13554C40.1923 0 34.9012 0 24.319 0H22.4483C11.866 0 6.57495 0 3.28747 3.13554ZM7.89209 13.5677C8.14541 25.1652 14.2251 32.1348 24.8842 32.1348H25.4883V25.4997C29.4051 25.8714 32.3668 28.6035 33.5555 32.1348H39.0897C37.5698 26.8565 33.5749 23.9385 31.0806 22.8234C33.5749 21.448 37.0824 18.1026 37.9203 13.5677H32.8928C31.8015 17.2477 28.5672 20.5931 25.4883 20.909V13.5677H20.4607V26.429C17.3429 25.6856 13.4067 22.08 13.2313 13.5677H7.89209Z" fill="black"/>
</g>
<defs>
<clipPath id="clip0_10_878">
<rect width="46.7672" height="44.6058" fill="white"/>
</clipPath>
</defs>
</svg>
